<svg xmlns="http://www.w3.org/2000/svg" xmlns:xlink="http://www.w3.org/1999/xlink" viewBox="0 0 48 48" version="1.1" width="96" height="96">
<g id="surface1">
<path style="fill:none;stroke-width:2;stroke-linecap:butt;stroke-linejoin:round;stroke:#B0BEC5;stroke-opacity:1;stroke-miterlimit:10;" d="M 24 33 C 24 35.257813 23 36.097656 23 37.589844 C 23 39.320313 25 40.378906 25 42 C 25 44.164063 23.636719 45.347656 23.636719 45.347656 "/>
<path style=" fill:#C51162;" d="M 26 34 L 25 34 L 24 35 L 23 34 L 22 34 L 23 30 L 25 30 Z "/>
<path style=" fill:#FF4081;" d="M 30.09375 2 C 27.792969 2 25.683594 2.796875 24 4.121094 C 22.316406 2.796875 20.207031 2 17.90625 2 C 12.433594 2 8 6.464844 8 11.972656 C 8 20 18.980469 29.023438 24 31 C 28.945313 28.960938 40 20.0625 40 11.972656 C 40 6.464844 35.566406 2 30.09375 2 Z "/>
<path style=" fill:#FCE4EC;" d="M 17.90625 6 C 19.222656 6 20.472656 6.4375 21.523438 7.265625 L 24 9.21875 L 26.476563 7.265625 C 27.527344 6.4375 29.683594 6 31 6 C 34.558594 6 34.519531 6.277344 36.679688 7.570313 C 35.261719 5.421875 32.839844 4 30.09375 4 C 28.324219 4 26.644531 4.585938 25.238281 5.695313 L 24 6.671875 L 22.761719 5.695313 C 21.355469 4.585938 19.675781 4 17.90625 4 C 13.546875 4 10 7.578125 10 11.972656 C 10 15.078125 12.078125 18.488281 14.757813 21.46875 C 13.121094 19.0625 12 16.003906 12 11.972656 C 12 8.679688 14.648438 6 17.90625 6 Z "/>
</g>
</svg>