<svg xmlns="http://www.w3.org/2000/svg" xmlns:xlink="http://www.w3.org/1999/xlink" viewBox="0 0 48 48" version="1.1" width="96" height="96">
<g id="surface1">
<path style=" fill:#FEB64F;" d="M 34.683594 21.605469 L 32.921875 15.449219 C 32.828125 15.125 32.652344 14.824219 32.414063 14.585938 C 32.148438 14.320313 30.21875 12 24 12 C 17.8125 12 15.851563 14.320313 15.585938 14.585938 C 15.347656 14.824219 15.171875 15.125 15.078125 15.449219 L 13.316406 21.605469 L 15.894531 24.789063 C 16.394531 24.539063 16.769531 24.089844 16.921875 23.550781 L 18 19.777344 L 18 26.132813 L 10.84375 28.085938 C 9.808594 28.367188 9.070313 29.273438 9.003906 30.34375 C 8.9375 31.410156 9.558594 32.402344 10.546875 32.808594 L 17.707031 35.757813 C 17.035156 36.449219 16.796875 37.5 17.1875 38.449219 C 17.585938 39.414063 18.519531 40 19.5 40 C 19.816406 40 20.140625 39.9375 20.453125 39.808594 L 24 38.351563 L 27.546875 39.8125 C 27.859375 39.9375 28.183594 40 28.5 40 C 29.480469 40 30.414063 39.414063 30.8125 38.453125 C 31.203125 37.503906 30.964844 36.453125 30.292969 35.757813 L 37.453125 32.8125 C 38.441406 32.402344 39.0625 31.410156 38.996094 30.34375 C 38.929688 29.277344 38.191406 28.367188 37.160156 28.085938 L 30 26.132813 L 30 19.78125 L 31.078125 23.550781 C 31.230469 24.089844 31.605469 24.539063 32.105469 24.789063 Z "/>
<path style="fill:none;stroke-width:4;stroke-linecap:round;stroke-linejoin:round;stroke:#FFB74D;stroke-opacity:1;stroke-miterlimit:10;" d="M 9 26 L 15 23 L 17 16 C 17 16 19 14 24 14 "/>
<path style="fill:none;stroke-width:4;stroke-linecap:round;stroke-linejoin:round;stroke:#FFB74D;stroke-opacity:1;stroke-miterlimit:10;" d="M 39 26 L 33 23 L 31 16 C 31 16 29 14 24 14 "/>
<path style=" fill:#FF754C;" d="M 34.683594 21.605469 L 32.921875 15.449219 C 32.828125 15.125 32.652344 14.824219 32.414063 14.585938 C 32.148438 14.320313 30.21875 12 24 12 C 17.8125 12 15.851563 14.320313 15.585938 14.585938 C 15.347656 14.824219 15.171875 15.125 15.078125 15.449219 L 13.316406 21.605469 L 15.894531 24.789063 C 16.394531 24.539063 16.769531 24.089844 16.921875 23.550781 L 18 19.777344 L 18 26.132813 L 10.84375 28.085938 C 9.808594 28.367188 9.070313 29.273438 9.003906 30.34375 C 8.9375 31.410156 9.558594 32.402344 10.546875 32.808594 L 17.707031 35.757813 C 17.707031 33.75 22.8125 32.34375 22.8125 32.34375 L 30.292969 35.757813 L 37.453125 32.808594 C 38.441406 32.402344 39.0625 31.410156 38.996094 30.34375 C 38.929688 29.273438 38.191406 28.367188 37.160156 28.085938 L 30 26.132813 L 30 19.78125 L 31.078125 23.550781 C 31.230469 24.089844 31.605469 24.539063 32.105469 24.789063 Z "/>
<path style=" fill:#FFB74D;" d="M 24 2 C 26.210938 2 28 3.789063 28 6 C 28 8.207031 26.210938 10 24 10 C 21.789063 10 20 8.207031 20 6 C 20 3.789063 21.789063 2 24 2 "/>
<path style=" fill:#546E7A;" d="M 14 43 L 34 43 L 34 45 L 14 45 Z "/>
<path style=" fill:#F9A825;" d="M 30.8125 38.449219 C 31.203125 37.5 30.964844 36.449219 30.292969 35.757813 L 24 38.351563 L 27.546875 39.8125 C 27.859375 39.9375 28.183594 40 28.5 40 C 29.480469 40 30.414063 39.414063 30.8125 38.449219 Z "/>
<path style=" fill:#E64A19;" d="M 25.957031 32.136719 L 13.175781 28.53125 L 23.980469 32.949219 Z "/>
<path style=" fill:#E64A19;" d="M 31.003906 35.464844 L 32.214844 34.96875 L 32.210938 34.96875 Z "/>
<path style=" fill:#E64A19;" d="M 30.269531 35.769531 C 30.363281 35.867188 30.46875 35.960938 30.546875 36.070313 C 30.46875 35.960938 30.386719 35.855469 30.292969 35.757813 Z "/>
<path style=" fill:#E64A19;" d="M 17.707031 35.757813 C 17.613281 35.855469 17.53125 35.960938 17.453125 36.070313 C 17.71875 35.691406 18.089844 35.378906 18.546875 35.1875 L 34.824219 28.53125 L 17.789063 33.335938 C 16.945313 33.683594 16.265625 34.265625 15.785156 34.96875 Z "/>
</g>
</svg>