<svg xmlns="http://www.w3.org/2000/svg" xmlns:xlink="http://www.w3.org/1999/xlink" viewBox="0 0 48 48" version="1.1" width="96" height="96">
<g id="surface1">
<path style=" fill:#FFC107;" d="M 36 14 C 29.214844 14 22.6875 22.425781 22.410156 22.785156 L 22.515625 22.863281 C 20.957031 24.910156 16.210938 30 12.167969 30 C 8.859375 30 6.167969 27.308594 6.167969 24 C 6.167969 20.757813 8.800781 18.066406 12.039063 18.003906 L 11.960938 14.003906 C 6.558594 14.109375 2.167969 18.597656 2.167969 24 C 2.167969 29.515625 6.652344 34 12.167969 34 C 18.972656 34 25.09375 26.101563 25.769531 25.199219 L 25.664063 25.121094 C 27.289063 23.050781 32.09375 18 36 18 C 39.308594 18 42 20.691406 42 24 C 42 27.308594 39.308594 30 36 30 L 36 34 C 41.515625 34 46 29.515625 46 24 C 46 18.484375 41.515625 14 36 14 Z "/>
<path style=" fill:#FFC107;" d="M 36 34 C 29.195313 34 23.074219 26.101563 22.398438 25.199219 L 21.234375 23.644531 C 19.050781 21.285156 15.3125 18 12.167969 18 L 12.035156 18.003906 L 11.964844 14.003906 L 12.167969 14 C 18.792969 14 25.058594 21.882813 25.75 22.777344 L 27.277344 24.761719 C 29.460938 27.070313 32.933594 30 36 30 Z "/>
<path style=" fill:#FF9800;" d="M 24.082031 27.203125 C 23.183594 26.222656 22.585938 25.445313 22.398438 25.199219 L 21.535156 24.046875 C 20.777344 24.90625 19.78125 25.921875 18.65625 26.875 L 19.199219 27.601563 C 19.527344 28.039063 20.21875 28.917969 21.199219 29.988281 C 22.347656 29.023438 23.320313 28.039063 24.082031 27.203125 Z "/>
<path style=" fill:#FF9800;" d="M 25.75 22.777344 L 26.65625 23.953125 C 27.0625 23.496094 27.53125 23.003906 28.054688 22.492188 L 27.332031 21.558594 C 27.027344 21.160156 26.394531 20.367188 25.503906 19.40625 C 24.972656 19.914063 24.496094 20.394531 24.085938 20.835938 C 24.972656 21.792969 25.566406 22.539063 25.75 22.777344 Z "/>
</g>
</svg>