<svg xmlns="http://www.w3.org/2000/svg" xmlns:xlink="http://www.w3.org/1999/xlink" viewBox="0 0 48 48" version="1.1" width="96" height="96">
<g id="surface1">
<path style=" fill:#FFBA57;" d="M 33 33.5 C 33 35.433594 31.433594 37 29.5 37 C 27.566406 37 26 35.433594 26 33.5 C 26 31.566406 27.566406 30 29.5 30 C 31.433594 30 33 31.566406 33 33.5 Z "/>
<path style=" fill:#FFBA57;" d="M 20 18 L 20 42.5 C 20 43.328125 20.671875 44 21.5 44 C 22.328125 44 23 43.328125 23 42.5 L 24 30 L 39.171875 21.84375 C 39.910156 21.472656 40.210938 20.570313 39.84375 19.828125 C 39.472656 19.089844 38.570313 18.789063 37.828125 19.15625 L 29 22.957031 L 29 18 Z "/>
<path style=" fill:#FF754C;" d="M 42.664063 4.890625 C 42.050781 3.972656 40.808594 3.722656 39.890625 4.335938 L 26.71875 12 L 7 12 C 5.898438 12 5 12.898438 5 14 C 5 15.101563 5.898438 16 7 16 L 20 17 L 20 18 L 29 18 L 29 17 L 42.109375 7.664063 C 43.027344 7.050781 43.277344 5.808594 42.664063 4.890625 Z "/>
<path style=" fill:#7E8CCF;" d="M 23.519531 36 L 24 30 L 34 24.621094 L 34 20.804688 L 29 22.957031 L 29 17 L 20 17 L 20 36 Z "/>
<path style=" fill:#606FC4;" d="M 27 17 L 27 23.816406 L 29 23 L 29 17 Z "/>
<path style=" fill:#E64A19;" d="M 41.003906 4 C 41.1875 4 41.34375 4.023438 41.472656 4.0625 C 41.316406 4.027344 41.160156 4 41.003906 4 Z "/>
<path style=" fill:#E64A19;" d="M 42.664063 4.890625 C 42.375 4.457031 41.941406 4.179688 41.472656 4.0625 C 42.371094 4.351563 41.902344 5.558594 40.753906 6.539063 C 39.445313 7.664063 27 17 27 17 L 29 17 L 42.109375 7.664063 C 43.027344 7.050781 43.277344 5.808594 42.664063 4.890625 Z "/>
</g>
</svg>