<svg xmlns="http://www.w3.org/2000/svg" xmlns:xlink="http://www.w3.org/1999/xlink" viewBox="0 0 48 48" version="1.1" width="96" height="96">
<g id="surface1">
<path style=" fill:#2196F3;" d="M 45.046875 24 C 45.046875 35.691406 35.523438 45 24.046875 45 C 12.574219 45 3.046875 35.691406 3.046875 24 C 3.046875 12.308594 12.355469 3 24.046875 3 C 35.738281 3 45.046875 12.308594 45.046875 24 "/>
<path style=" fill:#CDDC39;" d="M 25.277344 32.726563 C 24.828125 32.5625 23.527344 31.054688 23.382813 30.917969 C 23.234375 30.78125 22.570313 30.601563 22.261719 30.660156 C 21.953125 30.71875 20.511719 31.617188 20.105469 31.691406 C 19.703125 31.765625 19.351563 31.429688 19.160156 30.917969 C 18.96875 30.40625 18.632813 28.335938 18.902344 27.816406 C 19.171875 27.296875 22.007813 25.316406 22.605469 25.316406 C 23.203125 25.316406 23.625 27.09375 24.242188 27.210938 C 24.859375 27.328125 24.585938 25.640625 25.363281 25.664063 C 26.140625 25.6875 26.824219 28.246094 26.824219 28.246094 C 26.824219 28.246094 27.671875 29.535156 27.601563 29.972656 C 27.527344 30.40625 26.636719 32.234375 26.394531 32.46875 C 26.15625 32.703125 25.726563 32.890625 25.277344 32.726563 Z "/>
<path style=" fill:#CDDC39;" d="M 31.558594 34.003906 C 31.242188 34.003906 30.933594 33.855469 30.738281 33.578125 C 30.421875 33.128906 30.53125 32.507813 30.980469 32.1875 C 30.902344 32.097656 30.8125 32 30.730469 31.917969 C 30.332031 31.535156 30.316406 30.90625 30.699219 30.507813 C 31.078125 30.109375 31.710938 30.09375 32.109375 30.46875 C 32.589844 30.925781 33.148438 31.613281 33.101563 32.320313 C 33.050781 33.121094 32.34375 33.675781 32.128906 33.824219 C 31.953125 33.945313 31.757813 34.003906 31.558594 34.003906 Z "/>
<path style=" fill:#CDDC39;" d="M 28.316406 37.179688 C 28.054688 37.179688 27.792969 37.074219 27.597656 36.871094 C 27.214844 36.476563 27.222656 35.84375 27.621094 35.460938 L 29.507813 33.640625 C 29.90625 33.253906 30.539063 33.265625 30.921875 33.664063 C 31.304688 34.0625 31.292969 34.695313 30.898438 35.078125 L 29.011719 36.898438 C 28.816406 37.085938 28.566406 37.179688 28.316406 37.179688 Z "/>
<path style=" fill:#CDDC39;" d="M 7.417969 28.863281 C 7.398438 28.285156 8.3125 26.167969 7.976563 25.914063 C 7.636719 25.660156 7.375 26.230469 7.148438 26.0625 C 6.921875 25.898438 5.6875 24.417969 5.574219 24.144531 C 5.464844 23.867188 5.144531 22.832031 5.480469 22.769531 C 5.816406 22.703125 7.335938 24.644531 7.617188 24.808594 C 7.898438 24.96875 8.144531 24.832031 8.445313 24.65625 C 8.742188 24.480469 9.125 23.355469 8.910156 23.132813 C 8.695313 22.910156 6.832031 22.25 7.003906 21.96875 C 7.171875 21.6875 8.898438 22.070313 8.898438 22.070313 C 8.898438 22.070313 9.894531 22.0625 10.355469 22.285156 C 10.8125 22.511719 11.355469 23.875 11.722656 24.195313 C 12.09375 24.515625 12.851563 24.980469 12.996094 24.726563 C 13.140625 24.472656 12.644531 23.730469 12.652344 23.414063 C 12.660156 23.101563 13.414063 21.75 13.789063 21.648438 C 14.160156 21.546875 14.769531 22.1875 15.035156 22.589844 C 15.300781 22.988281 16.207031 24.730469 16.59375 24.710938 C 16.980469 24.691406 17.207031 23.144531 17.023438 22.800781 C 16.839844 22.453125 16 22 16.007813 21.46875 C 16.015625 20.933594 16.75 21.5625 17.117188 21.371094 C 17.484375 21.183594 18.207031 19.269531 18.007813 18.671875 C 17.804688 18.074219 17.144531 17.792969 17.148438 17.433594 C 17.148438 17.074219 18.914063 16.5625 19.351563 16.183594 C 19.789063 15.808594 20 14.8125 19.832031 14.457031 C 19.664063 14.101563 19.039063 13.8125 19.035156 13.199219 C 19.027344 12.589844 21.5 11.105469 21.796875 11.273438 C 22.089844 11.441406 21.707031 13.542969 22.152344 13.644531 C 22.597656 13.75 22.539063 11.8125 22.78125 11.214844 C 23.019531 10.613281 25.125 9.707031 25.148438 9.320313 C 25.175781 8.9375 23.914063 8.707031 23.265625 8.753906 C 22.617188 8.796875 21.6875 9.3125 21.535156 9.273438 C 21.386719 9.234375 21.144531 9.0625 21.003906 9.015625 C 20.859375 8.964844 19.167969 9.144531 18.800781 9.261719 C 18.429688 9.375 17.667969 9.957031 17.304688 9.921875 C 16.945313 9.882813 17.105469 9.457031 16.910156 9.425781 C 16.714844 9.394531 16.023438 9.875 15.492188 9.863281 C 14.960938 9.851563 14.4375 9.101563 13.585938 8.964844 C 13.261719 8.910156 12.582031 9.117188 11.863281 9.394531 C 7.675781 12.886719 5 18.136719 5 24 C 5 27.453125 5.941406 30.6875 7.558594 33.480469 C 7.664063 33.332031 7.75 33.175781 7.78125 33.03125 C 7.894531 32.503906 7.4375 29.4375 7.417969 28.863281 Z "/>
<path style=" fill:#CDDC39;" d="M 42.414063 19.402344 C 42.1875 18.492188 41.910156 17.601563 41.554688 16.746094 C 40.863281 16.742188 40.035156 16.726563 39.960938 16.691406 C 39.828125 16.632813 39.078125 16.34375 39.207031 15.882813 C 39.328125 15.453125 40.507813 15.515625 40.867188 15.296875 C 39.976563 13.574219 38.839844 12 37.488281 10.636719 C 37.230469 10.957031 36.914063 11.285156 36.671875 11.324219 C 36.1875 11.398438 34.390625 10.546875 34.089844 10.488281 C 33.789063 10.433594 32.859375 10.84375 32.394531 10.835938 C 31.929688 10.824219 31.1875 9.96875 30.929688 9.835938 C 30.667969 9.699219 29.71875 9.640625 29.472656 9.773438 C 29.230469 9.910156 28.828125 10.734375 28.964844 11.171875 C 29.097656 11.613281 29.5 12.074219 29.453125 12.308594 C 29.410156 12.539063 28.46875 12.996094 28.417969 13.429688 C 28.363281 13.859375 30.359375 12.699219 30.886719 12.695313 C 31.414063 12.691406 31.828125 12.703125 32.027344 12.9375 C 32.222656 13.175781 33.703125 15.640625 33.851563 16.304688 C 34.003906 16.972656 33.84375 18.21875 34.011719 18.6875 C 34.175781 19.15625 34.96875 20.082031 34.96875 20.082031 L 36.640625 23.273438 C 36.640625 23.273438 37.796875 24.671875 38.289063 24.589844 C 38.785156 24.507813 36.875 21.921875 36.945313 21.417969 C 37.015625 20.917969 37.90625 20.671875 38.453125 21.027344 C 39.003906 21.382813 40 23.402344 40.367188 23.082031 C 40.734375 22.757813 40.09375 21.21875 40.304688 20.859375 C 40.4375 20.632813 41.597656 19.902344 42.414063 19.402344 Z "/>
<path style=" fill:#CDDC39;" d="M 42.667969 27.089844 C 42.476563 26.820313 41.5625 25.03125 41.394531 24.964844 C 41.226563 24.898438 39.90625 25.25 39.652344 25.589844 C 39.394531 25.929688 39.484375 26.421875 39.246094 26.574219 C 39.007813 26.726563 38.5 26.390625 38.277344 26.859375 C 38.054688 27.328125 38.421875 29.09375 38.613281 29.417969 C 38.804688 29.742188 39.21875 29.9375 39.316406 30.359375 C 39.414063 30.78125 38.84375 31.601563 38.84375 31.601563 L 36.1875 35.335938 C 36.1875 35.335938 35.71875 36.296875 35.726563 36.785156 C 35.734375 37.277344 36.125 37.53125 36.371094 37.4375 C 36.617188 37.347656 36.875 36.34375 36.875 36.34375 C 36.875 36.34375 37.703125 35.246094 38.21875 34.925781 C 38.730469 34.601563 39.203125 34.484375 39.609375 34.34375 C 39.703125 34.308594 39.871094 34.214844 40.066406 34.09375 C 41.378906 32.015625 42.292969 29.671875 42.71875 27.15625 C 42.699219 27.136719 42.679688 27.109375 42.667969 27.089844 Z "/>
</g>
</svg>