<?xml version="1.0" encoding="utf-8"?>
<!-- Generator: Adobe Illustrator 16.0.0, SVG Export Plug-In . SVG Version: 6.00 Build 0)  -->
<!DOCTYPE svg PUBLIC "-//W3C//DTD SVG 1.1//EN" "http://www.w3.org/Graphics/SVG/1.1/DTD/svg11.dtd">
<svg version="1.1" id="Layer_1" xmlns="http://www.w3.org/2000/svg" xmlns:xlink="http://www.w3.org/1999/xlink" x="0px" y="0px"
	 width="64px" height="64px" viewBox="0 0 64 64" enable-background="new 0 0 64 64" xml:space="preserve">
<path d="M59.983,23.123c-0.238-0.832-0.756-1.312-1.428-1.312l-20.236,0.012l-0.004,0.01h-0.25c-0.191,0-0.383,0.043-0.564,0.121
	c-0.4,0.105-0.689,0.371-0.955,0.875c-1.664,3.037-2.832,5.127-4.445,8.016c-0.078,0.141-0.176,0.223-0.27,0.223h-0.002h-0.045
	l-0.033,0.006c-0.08,0-0.18-0.088-0.258-0.229l-0.031-0.059c-1.619-2.896-2.791-4.99-4.412-7.955c-0.02-0.037-0.041-0.068-0.059-0.1
	l-0.004-0.002c-0.221-0.541-0.75-0.9-1.334-0.9l-6.582,0.004l-5.107-8.879c0.574,0.006,1.609,0.012,3.277,0.012
	c1.35,0,3.025-0.006,4.984-0.006c2.746-0.004,6.043-0.006,9.768-0.006c11.217,0,18.584-0.002,18.584-0.002h0.508
	c1.461,0,1.633-0.285,1.715-0.424c0.316-0.529-0.26-1.186-0.926-1.949l-0.084-0.094l-0.025-0.027
	c-5.475-5.24-11.945-7.789-19.771-7.789c-8.033,0-16.188,3.414-20.766,8.691c-0.229,0.252-0.934,1.016-0.428,1.893l19.367,33.654
	l-5.34,9.279c-0.574-1.014-2.029-3.514-4.152-7.156c-1.379-2.371-3.039-5.217-4.908-8.432c-5.635-9.701-9.338-16.066-9.338-16.066
	l-0.256-0.438c-0.732-1.266-1.066-1.27-1.234-1.27c-0.617,0-0.893,0.828-1.217,1.787l-0.047,0.143
	C1.894,32.125,2.94,39,6.874,45.766c4.039,6.943,11.088,12.279,17.947,13.582c0.24,0.057,0.447,0.08,0.639,0.08
	c0.691,0,1.043-0.355,1.215-0.66l19.551-33.969c0.016-0.031,0.031-0.062,0.047-0.094l10.965-0.004
	c-0.596,1.014-2.059,3.566-4.197,7.297c-1.352,2.355-2.963,5.17-4.781,8.334c-5.59,9.727-9.26,16.117-9.26,16.117l-0.25,0.436
	c-0.732,1.268-0.568,1.562-0.49,1.699c0.203,0.365,0.656,0.365,0.807,0.365c0.385,0,0.875-0.104,1.352-0.197l0.152-0.033
	c7.273-2.137,12.707-6.473,16.605-13.262C61.175,38.498,62.278,29.732,59.983,23.123z"/>
</svg>
