<?xml version="1.0" encoding="UTF-8" standalone="no"?>
<!-- Created with Inkscape (http://www.inkscape.org/) -->

<svg
   xmlns:dc="http://purl.org/dc/elements/1.1/"
   xmlns:cc="http://creativecommons.org/ns#"
   xmlns:rdf="http://www.w3.org/1999/02/22-rdf-syntax-ns#"
   xmlns:svg="http://www.w3.org/2000/svg"
   xmlns="http://www.w3.org/2000/svg"
   xmlns:sodipodi="http://sodipodi.sourceforge.net/DTD/sodipodi-0.dtd"
   xmlns:inkscape="http://www.inkscape.org/namespaces/inkscape"
   version="1.1"
   id="svg3688"
   width="480"
   height="433"
   viewBox="0 0 480 433"
   sodipodi:docname="VERES-LOGO-SVG-White.svg"
   inkscape:version="0.92.0 r15299">
  <metadata
     id="metadata3694">
    <rdf:RDF>
      <cc:Work
         rdf:about="">
        <dc:format>image/svg+xml</dc:format>
        <dc:type
           rdf:resource="http://purl.org/dc/dcmitype/StillImage" />
        <dc:title></dc:title>
      </cc:Work>
    </rdf:RDF>
  </metadata>
  <defs
     id="defs3692" />
  <sodipodi:namedview
     pagecolor="#ffffff"
     bordercolor="#666666"
     borderopacity="1"
     objecttolerance="10"
     gridtolerance="10"
     guidetolerance="10"
     inkscape:pageopacity="0"
     inkscape:pageshadow="2"
     inkscape:window-width="1732"
     inkscape:window-height="991"
     id="namedview3690"
     showgrid="false"
     inkscape:zoom="1"
     inkscape:cx="129.94789"
     inkscape:cy="331.28555"
     inkscape:window-x="42"
     inkscape:window-y="0"
     inkscape:window-maximized="0"
     inkscape:current-layer="svg3688" />
  <path
     style="fill:#ffffff"
     d="m 193.58468,419.41385 c -0.86429,-0.86428 -1.57143,-2.68376 -1.57143,-4.04327 0,-1.3764 7.47115,-15.41547 16.85833,-31.67858 9.27208,-16.06369 27.04708,-46.86005 39.5,-68.43634 12.45292,-21.57628 22.64167,-39.54085 22.64167,-39.92125 0,-0.38041 0.62736,-1.40208 1.39414,-2.27039 0.76677,-0.86831 3.40726,-5.17874 5.86774,-9.57874 17.19067,-30.74147 81.46516,-142.53649 82.81097,-143.5481 1.27449,-0.958 12.46402,-0.18934 47.9004,-0.18934 40.70071,0 45.18818,0.36495 46.57144,1.74821 2.68028,2.68028 2.66522,7.23064 -3.42604,17.79191 -3.23475,5.60853 -6.77189,11.77232 -7.86031,13.69732 -1.08842,1.925 -3.32774,5.77364 -4.97626,8.55253 -1.64853,2.77889 -4.12576,7.05389 -5.50497,9.5 -4.47634,7.93907 -24.82995,43.40404 -25.79569,44.94747 -1.3105,2.09443 -8.14402,13.92734 -9.96941,17.26301 -0.83161,1.51966 -17.33567,30.09466 -36.67569,63.5 -19.34002,33.40534 -36.15492,62.53699 -37.36645,64.73699 -1.21152,2.2 -4.17537,7.25484 -6.58632,11.23298 -2.41095,3.97814 -4.38355,7.4569 -4.38355,7.73058 0,0.27368 -1.50224,2.86884 -3.3383,5.76702 -1.83607,2.89818 -5.02031,8.35494 -7.07609,12.12613 -6.0284,11.05866 -11.64616,20.04966 -13.36697,21.39329 -1.22808,0.95889 -12.36886,1.25 -47.83834,1.25 -40.70071,0 -46.42561,-0.18817 -47.80887,-1.57143 z m -17.74404,-27.46536 c -0.91993,-0.53678 -7.58884,-11.2106 -14.8198,-23.71959 -7.23096,-12.50899 -13.5489,-23.41862 -14.03987,-24.24362 -1.45975,-2.45289 -22.06067,-38.20322 -24.20226,-42 -1.76464,-3.12849 -14.54556,-25.21348 -16.78274,-29 -4.78413,-8.09732 -22.970585,-39.72045 -25.304395,-44 -1.64966,-3.025 -4.50214,-7.87124 -6.33885,-10.76942 -1.83672,-2.89818 -3.33948,-5.49334 -3.33948,-5.76702 0,-0.27368 -1.97342,-3.75244 -4.38537,-7.73058 -2.41195,-3.97814 -5.62764,-9.48298 -7.14598,-12.23298 -1.51834,-2.75 -13.94493,-24.38101 -27.61463,-48.0689 C 14.708045,114.6816 7.0132452,100.43195 7.0132452,98.390353 c 0,-2.92148 1.55865,-5.826621 22.4826998,-41.905072 5.10364,-8.8 10.13826,-17.574997 11.18803,-19.499997 7.31591,-13.41546 11.81211,-20.08308 13.89523,-20.60591 3.11379,-0.78152 5.55341,-0.18565 6.57503,1.60591 2.39189,4.19454 36.35966,62.990503 38.1297,65.999998 1.132205,1.925 4.057105,7.1 6.499795,11.500001 2.66365,4.488388 4.53828,7.649767 5.61441,9.313567 0.81097,1.39865 2.17603,3.60061 2.76416,4.66689 1.4722,2.66911 13.11401,23.34942 66.12718,115.01954 9.86007,17.05 19.06994,33.025 20.46637,35.5 1.39643,2.475 4.79027,8.325 7.54188,13 5.21764,8.86482 6.9321,11.83244 10.68782,18.5 1.23923,2.2 4.00241,7.00351 6.14042,10.67447 2.138,3.67096 3.88728,7.6659 3.88728,8.87763 0,1.21174 -4.21749,9.45823 -9.3722,18.32553 -5.15471,8.8673 -10.44221,18.01116 -11.75,20.31969 -1.30779,2.30852 -5.59334,9.73352 -9.52343,16.5 -3.9301,6.76647 -8.10104,14.01889 -9.26875,16.11648 -3.18347,5.71853 -5.42106,9.1012 -6.56252,9.92089 -1.42556,1.02369 -4.70385,0.89078 -6.69571,-0.27148 z M 237.4244,180.21997 c -0.92592,-0.62476 -10.51999,-16.42794 -17.1412,-28.23469 -1.07954,-1.925 -3.49441,-6.13672 -5.36637,-9.35937 -1.87197,-3.22265 -4.82513,-8.39765 -6.56259,-11.5 -1.73746,-3.10235 -6.04334,-10.59063 -9.56863,-16.64063 l -6.40962,-11 -30.93137,-0.53632 c -17.01225,-0.29498 -31.01005,-0.63248 -31.10622,-0.75 -0.33342,-0.40747 -10.83957,-18.439433 -13.7292,-23.563766 -1.59723,-2.832452 -9.58473,-16.720186 -17.750015,-30.861631 -8.16527,-14.141439 -14.84594,-26.596799 -14.84594,-27.678569 0,-1.08177 0.70714,-2.674 1.57143,-3.53828 1.41619,-1.4162 18.297295,-1.57143 170.889215,-1.57143 159.84874,0 169.42637,0.0979 171.25933,1.75 1.06785,0.9625 4.43111,6.025 7.47392,11.25 6.88223,11.81791 24.44339,42.292961 27.08362,46.999998 1.07975,1.925 3.93403,6.919219 6.34284,11.098264 4.64054,8.050881 5.36922,11.769317 2.80822,14.330304 -1.40535,1.40535 -11.10773,1.57143 -91.80413,1.57143 h -90.23271 l -17.44587,30.35294 c -9.59522,16.69412 -19.69586,34.25815 -22.44586,39.03117 -5.23959,9.09408 -8.35144,11.37235 -12.08885,8.85058 z"
     id="path3702"
     inkscape:connector-curvature="0"
     sodipodi:nodetypes="csssscsssssscscsscsscccsccssscccssssssscccccssscccssccccccscsscscssscscscscscssc" />
</svg>
